<?xml version="1.0" encoding="UTF-8" standalone="no"?>
<svg
   xmlns:dc="http://purl.org/dc/elements/1.1/"
   xmlns:cc="http://creativecommons.org/ns#"
   xmlns:rdf="http://www.w3.org/1999/02/22-rdf-syntax-ns#"
   xmlns:svg="http://www.w3.org/2000/svg"
   xmlns="http://www.w3.org/2000/svg"
   width="22.0px"
   height="22.0px"
   viewBox="0 0 22.0 22.0"
   version="1.1"
   id="SVGRoot">
  <defs
     id="defs10" />
  <metadata
     id="metadata13">
    <rdf:RDF>
      <cc:Work
         rdf:about="">
        <dc:format>image/svg+xml</dc:format>
        <dc:type
           rdf:resource="http://purl.org/dc/dcmitype/StillImage" />
        <dc:title></dc:title>
      </cc:Work>
    </rdf:RDF>
  </metadata>
  <g
     id="layer1">
    <path
       id="path26"
       d="M 10,2 C 4,2 4,6 4,6 v 4 c 0,0 0,4 3,4 3,0 6,0 6,2 0,2 0,4 2,4 2,0 2,-6 2,-6 V 7 c 0,0 0,-5 -7,-5 z"
       style="fill:#000000;fill-opacity:1;stroke:#000000;stroke-width:1px;stroke-linecap:butt;stroke-linejoin:miter;stroke-opacity:1" />
    <path
       d="M 4.0930097,6.0132631 C 3.9730871,6.0969975 3.6020789,6.1997433 3.7332421,6.2644663 3.8978601,6.3456976 4.0803837,6.1443637 4.2569551,6.0941626 4.4924089,6.0272206 4.7296671,5.9661125 4.9686697,5.913221 5.8663683,5.7145596 6.7723938,5.6070874 7.6849037,5.5064871 c 0.2428901,-0.019242 0.4857801,-0.038484 0.7286701,-0.057726 0,0 0.4713244,-0.3490362 0.4713244,-0.3490362 v 0 C 8.6321726,5.1257228 8.379447,5.1517209 8.1267214,5.1777189 7.2293541,5.2844471 6.3300797,5.3824211 5.4417612,5.5523354 5.3672805,5.5665817 4.4394024,5.7639534 4.2851727,5.8305182 3.9737058,5.964946 3.6827755,6.1426839 3.3815769,6.2987667 c 0,0 0.7114328,-0.2855036 0.7114328,-0.2855036 z"
       id="path34"
       style="fill:#ffffff;fill-opacity:1" />
    <path
       d="M 2.9952961,9.1919403 C 4.3859219,8.6360857 5.8663033,8.3478819 7.3369716,8.095712 7.5579811,8.063808 7.7789905,8.031904 8,8 8,8 8.4820568,7.6383699 8.4820568,7.6383699 v 0 C 8.2529203,7.6758741 8.0237838,7.7133785 7.7946474,7.750883 6.4824701,7.9864868 5.1725487,8.2524648 3.8920482,8.6277208 c -0.099396,0.029128 -0.1968217,0.0646 -0.2952326,0.096901 0,0 -0.6015195,0.467318 -0.6015195,0.4673185 z"
       id="path38"
       style="fill:#ffffff;fill-opacity:1" />
    <path
       d="m 3.1191857,12.076423 c 1.1892952,-0.268642 2.4023447,-0.411887 3.6117749,-0.554738 0,0 0.4604844,-0.343344 0.4604844,-0.343344 v 0 c -1.1593619,0.151217 -2.3196915,0.294782 -3.4786998,0.448672 0,0 -0.5935595,0.44941 -0.5935595,0.44941 z"
       id="path40"
       style="fill:#ffffff;fill-opacity:1" />
  </g>
</svg>
