<?xml version="1.0" encoding="UTF-8" standalone="no"?>
<svg
   xmlns:dc="http://purl.org/dc/elements/1.1/"
   xmlns:cc="http://creativecommons.org/ns#"
   xmlns:rdf="http://www.w3.org/1999/02/22-rdf-syntax-ns#"
   xmlns:svg="http://www.w3.org/2000/svg"
   xmlns="http://www.w3.org/2000/svg"
   width="22.0px"
   height="22.0px"
   viewBox="0 0 22.0 22.0"
   version="1.1"
   id="SVGRoot">
  <defs
     id="defs34" />
  <metadata
     id="metadata37">
    <rdf:RDF>
      <cc:Work
         rdf:about="">
        <dc:format>image/svg+xml</dc:format>
        <dc:type
           rdf:resource="http://purl.org/dc/dcmitype/StillImage" />
        <dc:title></dc:title>
      </cc:Work>
    </rdf:RDF>
  </metadata>
  <g
     id="layer1">
    <path
       id="path58"
       d="M 5,12 7,7 9,2 c 7.145945,-0.2737428 3.205128,3.5294118 4,6 l 6,3 v 9 H 6 Z"
       style="fill:#000000;fill-opacity:1;stroke:#000000;stroke-width:1.14156px;stroke-linecap:butt;stroke-linejoin:miter;stroke-opacity:1" />
    <path
       d="m 19.780952,12.835249 c -1.123592,-0.111579 -2.24834,-0.212226 -3.372348,-0.320133 -0.111693,-0.01089 -0.223387,-0.02178 -0.335081,-0.03267 0,0 -0.511504,0.366116 -0.511504,0.366116 v 0 c 0.119053,0.0055 0.238106,0.011 0.357159,0.0165 0.561172,0.03199 1.12206,0.06657 1.681655,0.120647 0.416885,0.04028 0.844495,0.08648 1.257641,0.15981 0.119949,0.02129 0.23773,0.05337 0.356594,0.08005 0,0 0.565884,-0.390324 0.565884,-0.390324 z"
       id="path92"
       style="fill:#ffffff;fill-opacity:1" />
    <path
       d="m 20.000339,15.348444 c -1.192576,0.01037 -2.380262,-0.132864 -3.564931,-0.254463 -0.21849,-0.02268 -0.437541,-0.03888 -0.656676,-0.05362 0,0 -0.552138,0.399898 -0.552138,0.399898 v 0 c 0.239449,-0.0076 0.478972,-0.007 0.718383,0.0043 0.828867,0.04501 1.656288,0.10588 2.482142,0.19079 0.216374,0.02225 0.432085,0.0506 0.648385,0.07357 0.126431,0.01342 0.253174,0.02372 0.379762,0.03559 0,0 0.545073,-0.396019 0.545073,-0.396019 z"
       id="path94"
       style="fill:#ffffff;fill-opacity:1" />
    <path
       d="m 20.018644,18.351372 c -1.021386,-0.155726 -2.025738,-0.401906 -3.038692,-0.602521 -0.313224,-0.06622 -0.62854,-0.111495 -0.947082,-0.139095 0,0 -0.52939,0.37953 -0.52939,0.37953 v 0 c 0.331952,0.01356 0.662505,0.04022 0.990051,0.09982 0.915129,0.150866 1.829243,0.327979 2.719661,0.591468 0.07534,0.02229 0.148569,0.05117 0.222853,0.07675 0,0 0.582599,-0.405958 0.582599,-0.405958 z"
       id="path98"
       style="fill:#ffffff;fill-opacity:1" />
  </g>
</svg>
